<svg xmlns="http://www.w3.org/2000/svg" width="1600" height="900" viewBox="0 0 1600 900">
  <defs>
    <radialGradient id="goldGlow" cx="50%" cy="35%" r="55%">
      <stop offset="0%" stop-color="#FFE9A6" stop-opacity="0.9"/>
      <stop offset="45%" stop-color="#F6EBD0" stop-opacity="0.95"/>
      <stop offset="100%" stop-color="#D8C59A"/>
    </radialGradient>
    <linearGradient id="scrollEdge" x1="0" x2="1">
      <stop offset="0" stop-color="#B98D46"/>
      <stop offset="0.18" stop-color="#F6EBD0"/>
      <stop offset="0.82" stop-color="#F6EBD0"/>
      <stop offset="1" stop-color="#B98D46"/>
    </linearGradient>
    <filter id="softShadow" x="-20%" y="-20%" width="140%" height="140%">
      <feDropShadow dx="0" dy="16" stdDeviation="20" flood-color="#5A2E1A" flood-opacity="0.22"/>
    </filter>
    <pattern id="paper" width="80" height="80" patternUnits="userSpaceOnUse">
      <rect width="80" height="80" fill="#F6EBD0"/>
      <path d="M0 18 C18 11 34 26 52 18 S80 16 92 22" fill="none" stroke="#D8C59A" stroke-width="1" opacity="0.18"/>
      <path d="M8 62 C24 54 38 70 62 58" fill="none" stroke="#A67D3D" stroke-width="1" opacity="0.10"/>
    </pattern>
  </defs>
  <rect width="1600" height="900" fill="#1F2E2A"/>
  <rect x="105" y="75" width="1390" height="750" rx="60" fill="url(#scrollEdge)" filter="url(#softShadow)"/>
  <rect x="165" y="95" width="1270" height="710" rx="38" fill="url(#paper)" opacity="0.96"/>
  <circle cx="800" cy="310" r="330" fill="url(#goldGlow)" opacity="0.72"/>
  <path d="M210 610 C360 500 470 520 620 445 C760 376 845 430 980 360 C1125 285 1260 330 1395 250 L1395 805 L210 805 Z" fill="#5C8F7B" opacity="0.25"/>
  <path d="M210 680 C365 590 490 620 650 540 C800 464 885 525 1040 450 C1190 378 1280 430 1395 360 L1395 805 L210 805 Z" fill="#4D7468" opacity="0.18"/>
  <g opacity="0.36" fill="none" stroke="#D8A84A" stroke-width="4">
    <path d="M310 180 C420 110 520 115 610 180 C715 256 850 215 940 152 C1050 75 1190 105 1290 190"/>
    <path d="M330 720 C460 660 570 676 690 720 C830 772 990 748 1128 688 C1210 652 1305 660 1390 715"/>
  </g>
  <g transform="translate(800 430)" opacity="0.52">
    <circle r="108" fill="none" stroke="#D8A84A" stroke-width="3"/>
    <circle r="78" fill="none" stroke="#D8A84A" stroke-width="2" opacity="0.7"/>
    <path d="M0 -112 C28 -72 28 -36 0 0 C-28 -36 -28 -72 0 -112Z" fill="#D8A84A" opacity="0.32"/>
    <path d="M0 112 C28 72 28 36 0 0 C-28 36 -28 72 0 112Z" fill="#D8A84A" opacity="0.32"/>
    <path d="M-112 0 C-72 -28 -36 -28 0 0 C-36 28 -72 28 -112 0Z" fill="#D8A84A" opacity="0.32"/>
    <path d="M112 0 C72 -28 36 -28 0 0 C36 28 72 28 112 0Z" fill="#D8A84A" opacity="0.32"/>
  </g>
  <text x="800" y="190" text-anchor="middle" font-family="serif" font-size="38" fill="#5A2E1A" opacity="0.65">一卷可以游玩的修行经卷</text>
</svg>
